<svg xmlns="http://www.w3.org/2000/svg" viewBox="0 0 24 24" fill="#fff"><path d="M20.447 20.452h-3.554v-5.569c0-1.328-.027-3.036-1.852-3.036-1.853 0-2.136 1.445-2.136 2.939v5.666H9.35V9h3.414v1.561h.046c.477-.9 1.637-1.85 3.37-1.85 3.6 0 4.268 2.37 4.268 5.455v6.286zM5.337 7.433a2.062 2.062 0 1 1 0-4.123 2.062 2.062 0 0 1 0 4.123zM6.99 20.452H3.684V9h3.306v11.452zM22.225 0H1.771C.792 0 0 .77 0 1.723v20.555C0 23.23.792 24 1.771 24h20.451C23.2 24 24 23.23 24 22.278V1.723C24 .77 23.2 0 22.222 0h.003z"/></svg>
